#N canvas 881 65 615 562 10;
#X obj 411 112 bng 15 250 50 0 empty empty empty 17 7 0 10 -262144
-1 -1;
#X floatatom 408 87 5 0 0 0 - - -;
#X obj 410 134 bng 15 250 50 0 empty empty empty 17 7 0 10 -262144
-1 -1;
#X text 429 110 start;
#X text 431 132 stop;
#X obj 17 19 dumpOSC 8888;
#X obj 17 44 route /soundOn /soundOff;
#X obj 363 382 output~;
#X floatatom 319 249 5 0 0 0 - - -;
#X obj 369 341 *~;
#X obj 380 304 tgl 15 0 empty empty empty 17 7 0 10 -262144 -1 -1 0
1;
#X obj 316 300 osc~;
#X floatatom 17 166 16 0 0 1 dot_id - -;
#X floatatom 17 193 15 0 0 1 intensity - -;
#X floatatom 17 219 15 0 0 1 latitude - -;
#X floatatom 17 243 15 0 0 1 longitude - -;
#X floatatom 16 270 15 0 0 1 phase - -;
#X obj 17 93 unpack 0 0 0 0 0;
#X obj 314 208 + 100;
#X floatatom 321 172 5 0 0 0 - - -;
#X obj 234 152 * 30;
#X floatatom 251 123 5 0 0 0 - - -;
#X connect 5 0 6 0;
#X connect 6 0 17 0;
#X connect 8 0 11 0;
#X connect 9 0 7 0;
#X connect 9 0 7 1;
#X connect 10 0 9 1;
#X connect 11 0 9 0;
#X connect 17 0 12 0;
#X connect 17 1 13 0;
#X connect 17 2 14 0;
#X connect 17 2 20 0;
#X connect 17 3 15 0;
#X connect 17 4 16 0;
#X connect 18 0 8 0;
#X connect 19 0 18 1;
#X connect 20 0 18 0;
#X connect 21 0 20 1;
