#N canvas 440 186 596 717 10;
#X declare -path .;
#X obj 17 79 dumpOSC 8888;
#X obj 17 104 route /soundOn /soundOff;
#X obj 190 592 output~;
#X floatatom 381 326 5 0 0 0 - - -;
#X floatatom 17 226 16 0 0 1 dot_id - -;
#X floatatom 17 253 15 0 0 1 intensity - -;
#X floatatom 17 278 15 0 0 1 latitude - -;
#X floatatom 17 303 15 0 0 1 longitude - -;
#X floatatom 16 330 15 0 0 1 phase - -;
#X obj 17 153 unpack 0 0 0 0 0;
#X floatatom 402 235 5 0 0 0 - - -;
#X floatatom 189 180 16 0 0 1 dot_id - -;
#X obj 426 359 / 10;
#X floatatom 447 335 5 0 0 0 - - -;
#X floatatom 426 382 5 0 0 0 - - -;
#X obj 313 95 declare -path .;
#X obj 373 548 tone 0 0;
#X obj 381 405 pack 0 0;
#X obj 381 277 + 50;
#X obj 189 154 unpack 0 0;
#X floatatom 189 206 15 0 0 1 latitude - -;
#X obj 189 323 pack 0 0;
#X obj 189 277 + 50;
#X msg 373 495 2000 50;
#X msg 427 495 2000 0;
#X msg 373 518 2100 55;
#X msg 427 518 2100 0;
#X obj 189 299 i;
#X obj 381 300 i;
#X text 310 76 tell PD to look for patches in file directory;
#X text 370 472 just to test some sounds;
#X text 196 343 turn sound off;
#X text 289 404 turn sound on;
#X text 464 355 intensity = volume;
#X text 411 292 latitude = pitch;
#X text 439 233 set base pitch;
#X obj 192 118 print osc;
#X obj 192 96 gate;
#X obj 192 76 tgl 15 0 empty empty empty 17 7 0 10 -262144 -1 -1 0
1;
#X obj 495 428 gate;
#X obj 495 408 tgl 15 0 empty empty empty 17 7 0 10 -262144 -1 -1 1
1;
#X obj 495 450 print sound-on;
#X obj 50 434 gate;
#X obj 50 414 tgl 15 0 empty empty empty 17 7 0 10 -262144 -1 -1 0
1;
#X obj 50 456 print sound-off;
#X obj 189 485 u_makepoly 15 0 tone;
#X text 17 -8 make noise from the sound triggers coming from OF/reciprocalSphere.
gets noisy when too many notes are played at once \, especially with
low frequencies? issues with the u_makepoly probably \, with the voice-stealing?
;
#X connect 0 0 1 0;
#X connect 0 0 37 1;
#X connect 1 0 9 0;
#X connect 1 1 19 0;
#X connect 3 0 17 0;
#X connect 9 0 4 0;
#X connect 9 1 5 0;
#X connect 9 1 12 0;
#X connect 9 2 6 0;
#X connect 9 2 18 0;
#X connect 9 3 7 0;
#X connect 9 4 8 0;
#X connect 10 0 18 1;
#X connect 10 0 22 1;
#X connect 12 0 14 0;
#X connect 13 0 12 1;
#X connect 14 0 17 1;
#X connect 16 0 2 0;
#X connect 16 1 2 1;
#X connect 17 0 39 1;
#X connect 17 0 45 0;
#X connect 18 0 28 0;
#X connect 19 0 11 0;
#X connect 19 1 20 0;
#X connect 20 0 22 0;
#X connect 21 0 42 1;
#X connect 21 0 45 0;
#X connect 22 0 27 0;
#X connect 23 0 16 0;
#X connect 24 0 16 0;
#X connect 25 0 16 0;
#X connect 26 0 16 0;
#X connect 27 0 21 0;
#X connect 28 0 3 0;
#X connect 37 0 36 0;
#X connect 38 0 37 0;
#X connect 39 0 41 0;
#X connect 40 0 39 0;
#X connect 42 0 44 0;
#X connect 43 0 42 0;
#X connect 45 0 2 0;
#X connect 45 1 2 1;
