#N canvas 1004 123 573 563 10;
#X declare -path .;
#X obj 17 19 dumpOSC 8888;
#X obj 17 44 route /soundOn /soundOff;
#X obj 215 493 output~;
#X floatatom 334 294 5 0 0 0 - - -;
#X floatatom 17 166 16 0 0 1 dot_id - -;
#X floatatom 17 193 15 0 0 1 intensity - -;
#X floatatom 17 218 15 0 0 1 latitude - -;
#X floatatom 17 243 15 0 0 1 longitude - -;
#X floatatom 16 270 15 0 0 1 phase - -;
#X obj 17 93 unpack 0 0 0 0 0;
#X floatatom 402 241 5 0 0 0 - - -;
#X floatatom 385 208 5 0 0 0 - - -;
#X floatatom 189 120 16 0 0 1 dot_id - -;
#X obj 239 254 / 10;
#X obj 38 403 u_makepoly 32 1 s_rhodey \$0-MYINST;
#X floatatom 255 226 5 0 0 0 - - -;
#X floatatom 272 278 5 0 0 0 - - -;
#X text 103 423 metallic piano;
#X obj 148 441 s_rhodey;
#X obj 397 129 poly;
#X obj 37 494 u_robinpoly;
#X obj 313 35 declare -path .;
#X obj 398 430 tone 0 0;
#X obj 237 319 pack 0 0;
#X obj 364 230 * 1;
#X obj 375 262 + 50;
#X obj 189 94 unpack 0 0;
#X floatatom 189 146 15 0 0 1 latitude - -;
#X obj 190 220 pack 0 0;
#X obj 190 174 + 50;
#X obj 362 319 print turnon;
#X obj 363 343 print turnoff;
#X msg 394 380 2000 50;
#X msg 448 377 2000 0;
#X msg 424 400 2100 55;
#X msg 478 397 2100 0;
#X obj 199 355 u_makepoly 16 1 tone;
#X obj 192 196 i;
#X obj 388 285 i;
#X connect 0 0 1 0;
#X connect 1 0 9 0;
#X connect 1 1 26 0;
#X connect 3 0 23 0;
#X connect 9 0 4 0;
#X connect 9 1 5 0;
#X connect 9 1 13 0;
#X connect 9 2 6 0;
#X connect 9 2 24 0;
#X connect 9 3 7 0;
#X connect 9 4 8 0;
#X connect 10 0 25 1;
#X connect 10 0 29 1;
#X connect 11 0 24 1;
#X connect 13 0 16 0;
#X connect 14 0 2 0;
#X connect 14 1 2 1;
#X connect 15 0 13 1;
#X connect 16 0 23 1;
#X connect 22 0 2 0;
#X connect 22 1 2 1;
#X connect 23 0 36 0;
#X connect 24 0 25 0;
#X connect 25 0 38 0;
#X connect 26 0 12 0;
#X connect 26 1 27 0;
#X connect 27 0 29 0;
#X connect 28 0 36 0;
#X connect 29 0 37 0;
#X connect 32 0 22 0;
#X connect 33 0 22 0;
#X connect 34 0 22 0;
#X connect 35 0 22 0;
#X connect 36 0 2 0;
#X connect 36 1 2 1;
#X connect 37 0 28 0;
#X connect 38 0 3 0;
