#N canvas 534 32 573 563 10;
#X obj 17 19 dumpOSC 8888;
#X obj 17 44 route /soundOn /soundOff;
#X obj 215 493 output~;
#X floatatom 370 291 5 0 0 0 - - -;
#X floatatom 17 166 16 0 0 1 dot_id - -;
#X floatatom 17 193 15 0 0 1 intensity - -;
#X floatatom 17 219 15 0 0 1 latitude - -;
#X floatatom 17 243 15 0 0 1 longitude - -;
#X floatatom 16 270 15 0 0 1 phase - -;
#X obj 17 93 unpack 0 0 0 0 0;
#X floatatom 402 241 5 0 0 0 - - -;
#X floatatom 385 208 5 0 0 0 - - -;
#X floatatom 189 120 16 0 0 1 dot_id - -;
#X obj 375 262 + 220;
#X obj 364 230 * 10;
#X obj 205 334 pack 0 1;
#X obj 239 254 / 10;
#X obj 38 403 u_makepoly 32 1 s_rhodey \$0-MYINST;
#X obj 189 94 unpack 0;
#X floatatom 255 226 5 0 0 0 - - -;
#X obj 353 350 u_makepoly 4 1 tone \$0-mytone;
#X obj 398 430 tone;
#X msg 448 377 200 0;
#X msg 394 380 440 100;
#X floatatom 255 288 5 0 0 0 - - -;
#X text 103 423 metallic piano;
#X obj 148 441 s_rhodey;
#X connect 0 0 1 0;
#X connect 1 0 9 0;
#X connect 1 1 18 0;
#X connect 3 0 15 0;
#X connect 9 0 4 0;
#X connect 9 1 5 0;
#X connect 9 1 16 0;
#X connect 9 2 6 0;
#X connect 9 2 14 0;
#X connect 9 3 7 0;
#X connect 9 4 8 0;
#X connect 10 0 13 1;
#X connect 11 0 14 1;
#X connect 13 0 3 0;
#X connect 14 0 13 0;
#X connect 15 0 17 0;
#X connect 16 0 15 1;
#X connect 16 0 24 0;
#X connect 17 0 2 0;
#X connect 17 1 2 1;
#X connect 18 0 12 0;
#X connect 19 0 16 1;
#X connect 20 0 2 0;
#X connect 20 1 2 1;
#X connect 21 0 2 0;
#X connect 22 0 21 0;
#X connect 23 0 21 0;
