#N canvas 1013 409 819 647 10;
#X declare -path .;
#X obj -64 99 dumpOSC 8888;
#X floatatom -64 233 15 0 0 1 intensity - -;
#X floatatom -64 209 15 0 0 1 phase - -;
#X text -64 12 make noise from the sound triggers coming from OF/reciprocalSphere.
;
#X obj -64 124 route /soundPing;
#X obj -64 173 unpack 0 0;
#X obj 136 540 output~;
#X obj 90 138 print osc;
#X obj 90 116 gate;
#X obj 90 96 tgl 15 0 empty empty empty 17 7 0 10 -262144 -1 -1 0 1
;
#X obj 236 108 declare -path .;
#X obj 169 360 print midinote;
#X obj 169 326 pack 0 0;
#X obj 169 233 * 0.1;
#X floatatom 106 268 5 0 0 0 - - -;
#X obj 169 262 + 60;
#X text 266 537 (1) num voices (2) voice stealing (3) abstraction (4)
ramp up attack [sound on] (5) ramp down [sound on] (6) fade out [sound
out];
#X obj 504 143 metro 100;
#X obj 504 114 tgl 15 0 empty empty empty 17 7 0 10 -262144 -1 -1 0
1;
#X floatatom 555 115 5 0 0 0 - - -;
#X floatatom 480 261 5 0 0 0 - - -;
#X obj 566 226 t 0;
#X obj 565 201 select 500;
#X floatatom 217 187 5 0 0 0 - - -;
#X floatatom 603 234 5 0 0 0 - - -;
#X obj 504 169 counter 0 500;
#X obj 462 232 random 50;
#X obj 486 201 t b;
#X floatatom 277 261 5 0 0 0 - - -;
#X obj -30 400 tone 100 20 50;
#X obj 475 288 pack 0 1000;
#X obj 526 250 random 3000;
#X obj 133 433 u_makepoly 64 1 tone 500 500 1000;
#X obj 169 290 makenote 3 1000;
#X obj -47 474 tb_compressor~;
#X obj 220 234 * 0.00025;
#X connect 0 0 4 0;
#X connect 0 0 8 1;
#X connect 4 0 5 0;
#X connect 5 0 2 0;
#X connect 5 0 13 0;
#X connect 5 1 1 0;
#X connect 5 1 35 0;
#X connect 8 0 7 0;
#X connect 9 0 8 0;
#X connect 12 0 11 0;
#X connect 12 0 32 0;
#X connect 13 0 15 0;
#X connect 14 0 15 0;
#X connect 15 0 33 0;
#X connect 17 0 25 0;
#X connect 18 0 17 0;
#X connect 19 0 17 1;
#X connect 21 0 18 0;
#X connect 22 0 21 0;
#X connect 23 0 35 0;
#X connect 25 0 22 0;
#X connect 25 0 24 0;
#X connect 25 0 27 0;
#X connect 26 0 20 0;
#X connect 26 0 30 0;
#X connect 27 0 26 0;
#X connect 27 0 31 0;
#X connect 30 0 5 0;
#X connect 31 0 30 1;
#X connect 32 0 6 0;
#X connect 33 0 12 0;
#X connect 33 1 12 1;
#X connect 35 0 28 0;
#X connect 35 0 33 1;
