#N canvas 304 163 500 647 10;
#X declare -path .;
#X obj 23 96 dumpOSC 8888;
#X floatatom 23 230 15 0 0 1 intensity - -;
#X floatatom 23 206 15 0 0 1 phase - -;
#X text 23 9 make noise from the sound triggers coming from OF/reciprocalSphere.
;
#X obj 23 121 route /soundPing;
#X obj 23 170 unpack 0 0;
#X obj 223 537 output~;
#X obj 177 135 print osc;
#X obj 177 113 gate;
#X obj 177 93 tgl 15 0 empty empty empty 17 7 0 10 -262144 -1 -1 0
1;
#X obj 323 105 declare -path .;
#X obj 256 357 print midinote;
#X obj 256 323 pack 0 0;
#X obj 256 259 + 50;
#X obj 256 230 * 0.1;
#X obj 309 230 * 0.1;
#X obj 222 430 u_makepoly 32 0 tone;
#X obj 256 287 makenote 3 100;
#X connect 0 0 4 0;
#X connect 0 0 8 1;
#X connect 4 0 5 0;
#X connect 5 0 2 0;
#X connect 5 0 14 0;
#X connect 5 1 1 0;
#X connect 5 1 15 0;
#X connect 8 0 7 0;
#X connect 9 0 8 0;
#X connect 12 0 11 0;
#X connect 12 0 16 0;
#X connect 13 0 17 0;
#X connect 14 0 13 0;
#X connect 15 0 17 1;
#X connect 15 0 17 2;
#X connect 16 0 6 0;
#X connect 16 1 6 1;
#X connect 17 0 12 0;
#X connect 17 1 12 1;
