#N canvas 1343 499 426 447 10;
#X obj 17 40 route /soundOn /soundOff;
#X floatatom 17 125 16 0 0 1 dot_id - -;
#X floatatom 17 146 15 0 0 1 intensity - -;
#X floatatom 17 167 15 0 0 1 latitude - -;
#X floatatom 17 188 15 0 0 1 longitude - -;
#X floatatom 16 209 15 0 0 1 phase - -;
#X obj 17 79 unpack 0 0 0 0 0;
#X floatatom 201 125 16 0 0 1 dot_id - -;
#X obj 201 81 unpack 0 0;
#X floatatom 201 146 15 0 0 1 latitude - -;
#X obj 126 395 makenote;
#X floatatom 245 360 0 0 0 0 - - -;
#X floatatom 289 360 0 0 0 0 - - -;
#X floatatom 332 360 0 0 0 0 - - -;
#X text 243 340 pitch;
#X text 288 340 vel;
#X text 324 340 length;
#X floatatom 221 193 5 0 0 0 - - -;
#X obj 200 216 + 50;
#X obj 200 239 i;
#X text 231 212 latitude = pitch;
#X text 255 192 set base pitch;
#X obj 246 270 / 10;
#X floatatom 267 246 5 0 0 0 - - -;
#X floatatom 246 293 5 0 0 0 - - -;
#X text 284 266 intensity = volume;
#X floatatom 200 262 5 0 0 0 - - -;
#X obj 14 372 gate;
#X obj 14 352 tgl 15 0 empty empty empty 17 7 0 10 -262144 -1 -1 0
1;
#X obj 14 394 print sound-on;
#X msg 255 46 2000 1000 30 40 0;
#X obj 126 341 route 1;
#X obj 126 288 t b;
#X obj 17 16 dumpOSC 8888;
#X text 253 29 test if MIDI chain works;
#X obj 126 315 pack 1 0 0 100;
#X obj 126 421 noteout;
#X connect 0 0 6 0;
#X connect 0 2 8 0;
#X connect 6 0 1 0;
#X connect 6 0 32 0;
#X connect 6 1 2 0;
#X connect 6 1 22 0;
#X connect 6 2 3 0;
#X connect 6 2 18 0;
#X connect 6 3 4 0;
#X connect 6 4 5 0;
#X connect 8 0 7 0;
#X connect 8 1 9 0;
#X connect 10 0 36 0;
#X connect 10 1 36 1;
#X connect 11 0 10 0;
#X connect 12 0 10 1;
#X connect 13 0 10 2;
#X connect 17 0 18 1;
#X connect 18 0 19 0;
#X connect 19 0 26 0;
#X connect 19 0 35 1;
#X connect 22 0 24 0;
#X connect 22 0 35 2;
#X connect 23 0 22 1;
#X connect 27 0 29 0;
#X connect 28 0 27 0;
#X connect 30 0 6 0;
#X connect 31 0 27 1;
#X connect 31 0 10 0;
#X connect 32 0 35 0;
#X connect 33 0 0 0;
#X connect 35 0 31 0;
