#N canvas 578 529 493 452 10;
#X obj 27 18 inlet;
#X obj 31 403 outlet~;
#X obj 28 119 mtof~;
#X obj 29 180 osc~;
#X obj 30 366 *~;
#X msg 50 158 0;
#X obj 395 187 bng 15 250 50 0 empty empty empty 17 7 0 10 -262144
-1 -1;
#X obj 69 73 select 0;
#X obj 117 324 vline~;
#X obj 125 402 outlet~;
#X obj 391 19 inlet;
#X obj 27 42 unpack 0 0;
#X floatatom 35 97 5 0 0 0 - - -;
#X floatatom 146 17 5 0 0 0 - - -;
#X msg 395 233 0 \$3;
#X obj 395 210 l \$1 \$2 \$3;
#X obj 103 184 l \$1 \$2 \$3;
#X obj 264 185 * 0.2;
#X obj 208 209 pack 1 0.2;
#X msg 117 284 \$1 \$3 \, \$2 \$4 \$3;
#X obj 104 121 t f b;
#X floatatom 148 79 5 0 0 0 - - -;
#X obj 117 255 pack 0 0 0 0 0;
#X obj 104 209 unpack 0 0 0;
#X text 123 50 phase intensity;
#X text 124 64;
#X text 396 150 release;
#X text 149 123 attack;
#X connect 0 0 11 0;
#X connect 2 0 3 0;
#X connect 3 0 4 0;
#X connect 4 0 1 0;
#X connect 4 0 9 0;
#X connect 5 0 3 1;
#X connect 6 0 15 0;
#X connect 7 0 6 0;
#X connect 7 1 20 0;
#X connect 8 0 4 1;
#X connect 11 0 2 0;
#X connect 11 1 7 0;
#X connect 12 0 2 0;
#X connect 13 0 7 0;
#X connect 14 0 8 0;
#X connect 15 0 14 0;
#X connect 16 0 23 0;
#X connect 17 0 18 1;
#X connect 18 0 22 0;
#X connect 19 0 8 0;
#X connect 20 0 17 0;
#X connect 20 0 18 0;
#X connect 20 1 16 0;
#X connect 20 1 5 0;
#X connect 21 0 20 0;
#X connect 22 0 19 0;
#X connect 23 0 22 2;
#X connect 23 1 22 3;
#X connect 23 2 22 4;
