#N canvas 787 488 450 300 10;
#X obj 27 18 inlet;
#X obj 29 255 outlet~;
#X obj 28 119 mtof~;
#X obj 29 180 osc~;
#X obj 28 218 *~;
#X msg 50 158 0;
#X obj 115 124 bng 15 250 50 0 empty empty empty 17 7 0 10 -262144
-1 -1;
#X msg 115 145 1 200 \, 0.2 1000 200;
#X obj 246 121 bng 15 250 50 0 empty empty empty 17 7 0 10 -262144
-1 -1;
#X obj 69 73 select 0;
#X obj 115 196 vline~;
#X text 123 51 latitude intensity longitude phase;
#X text 124 64 pitch volume panning effect;
#X msg 248 145 0 1000;
#X obj 123 254 outlet~;
#X obj 207 23 inlet;
#X obj 27 42 unpack 0 0;
#X floatatom 35 97 5 0 0 0 - - -;
#X floatatom 146 17 5 0 0 0 - - -;
#X connect 0 0 16 0;
#X connect 2 0 3 0;
#X connect 3 0 4 0;
#X connect 4 0 1 0;
#X connect 4 0 14 0;
#X connect 5 0 3 1;
#X connect 6 0 5 0;
#X connect 6 0 7 0;
#X connect 7 0 10 0;
#X connect 8 0 13 0;
#X connect 9 0 8 0;
#X connect 9 1 6 0;
#X connect 10 0 4 1;
#X connect 13 0 10 0;
#X connect 16 0 2 0;
#X connect 16 1 9 0;
#X connect 17 0 2 0;
#X connect 18 0 9 0;
