#N canvas 813 437 664 609 10;
#X obj 288 216 cos~;
#X obj 288 170 *~;
#X obj 331 218 cos~;
#X obj 372 119 wrap~;
#X obj 335 118 -~;
#X obj 331 195 +~;
#X obj 329 253 -~;
#X obj 350 279 *~;
#X obj 335 88 samphold~;
#X floatatom 319 -79 4 0 200 0 - - -;
#X obj 352 -9 / 10;
#X obj 352 40 line~;
#X text 352 -93 freq. (in;
#X text 352 -73 tenths of;
#X text 352 -53 fundamental);
#X obj 352 17 pack 0 50;
#X obj 241 23 phasor~;
#X floatatom 241 0 4 0 0 0 - - -;
#X text 226 -53 fundamental;
#X text 226 -33 (= mod freq);
#X text 555 -6 index;
#X text 555 14 (percent);
#X floatatom 555 35 4 0 500 0 - - -;
#X obj 505 101 cos~;
#X obj 555 104 line~;
#X obj 505 124 *~;
#X obj 555 58 / 100;
#X obj 555 81 pack 0 50;
#X obj 288 193 +~;
#X text 508 150 modulating;
#X text 508 170 oscillator;
#X text 160 192 both phases-->;
#X text 129 175 add modulator to;
#X obj 353 372 output~;
#X obj 352 341 hip~;
#X obj 327 305 +~;
#X obj 43 -119 dumpOSC 8002;
#X obj 44 -92 route /sound;
#X floatatom 45 -60 5 0 0 0 - - -;
#X obj 328 -42 +;
#X obj 44 -33 * 5;
#X connect 0 0 6 1;
#X connect 0 0 35 0;
#X connect 1 0 28 0;
#X connect 2 0 6 0;
#X connect 3 0 4 1;
#X connect 3 0 7 1;
#X connect 4 0 1 1;
#X connect 5 0 2 0;
#X connect 6 0 7 0;
#X connect 7 0 35 1;
#X connect 8 0 4 0;
#X connect 8 0 3 0;
#X connect 9 0 39 1;
#X connect 10 0 15 0;
#X connect 11 0 8 0;
#X connect 15 0 11 0;
#X connect 16 0 8 1;
#X connect 16 0 23 0;
#X connect 16 0 1 0;
#X connect 16 0 5 1;
#X connect 17 0 16 0;
#X connect 22 0 26 0;
#X connect 23 0 25 0;
#X connect 24 0 25 1;
#X connect 25 0 28 1;
#X connect 26 0 27 0;
#X connect 27 0 24 0;
#X connect 28 0 5 0;
#X connect 28 0 0 0;
#X connect 34 0 33 0;
#X connect 34 0 33 1;
#X connect 35 0 34 0;
#X connect 36 0 37 0;
#X connect 37 0 38 0;
#X connect 38 0 40 0;
#X connect 39 0 10 0;
#X connect 40 0 39 0;
